<svg width="16" height="16" viewBox="0 0 16 16" fill="none" xmlns="http://www.w3.org/2000/svg">
<path d="M13.5 9C13.6354 9 13.7526 9.04948 13.8516 9.14844C13.9505 9.2474 14 9.36458 14 9.5C14 9.63542 13.9505 9.7526 13.8516 9.85156C13.7526 9.95052 13.6354 10 13.5 10C13.3646 10 13.2474 9.95052 13.1484 9.85156C13.0495 9.7526 13 9.63542 13 9.5C13 9.36458 13.0495 9.2474 13.1484 9.14844C13.2474 9.04948 13.3646 9 13.5 9ZM8.78906 8.85156C8.3776 8.57031 7.9349 8.35938 7.46094 8.21875C6.98698 8.07812 6.5 8.00521 6 8C5.54167 8 5.09896 8.0599 4.67188 8.17969C4.24479 8.29948 3.84635 8.46615 3.47656 8.67969C3.10677 8.89323 2.77083 9.15365 2.46875 9.46094C2.16667 9.76823 1.90625 10.1068 1.6875 10.4766C1.46875 10.8464 1.29948 11.2448 1.17969 11.6719C1.0599 12.099 1 12.5417 1 13H0C0 12.3906 0.0911458 11.7943 0.273438 11.2109C0.455729 10.6276 0.71875 10.0885 1.0625 9.59375C1.40625 9.09896 1.8151 8.65885 2.28906 8.27344C2.76302 7.88802 3.29167 7.59375 3.875 7.39062C3.58333 7.20312 3.32292 6.98698 3.09375 6.74219C2.86458 6.4974 2.66667 6.22917 2.5 5.9375C2.33333 5.64583 2.21094 5.33854 2.13281 5.01562C2.05469 4.69271 2.01042 4.35417 2 4C2 3.44792 2.10417 2.92969 2.3125 2.44531C2.52083 1.96094 2.80469 1.53646 3.16406 1.17188C3.52344 0.807292 3.94792 0.520833 4.4375 0.3125C4.92708 0.104167 5.44792 0 6 0C6.55208 0 7.07031 0.104167 7.55469 0.3125C8.03906 0.520833 8.46354 0.804688 8.82812 1.16406C9.19271 1.52344 9.47917 1.94792 9.6875 2.4375C9.89583 2.92708 10 3.44792 10 4C10 4.34896 9.95833 4.6849 9.875 5.00781C9.79167 5.33073 9.66667 5.64062 9.5 5.9375C9.33333 6.23438 9.13802 6.5026 8.91406 6.74219C8.6901 6.98177 8.42708 7.19792 8.125 7.39062C8.54688 7.54167 8.95312 7.75 9.34375 8.01562L8.78906 8.85156ZM3 4C3 4.41667 3.07812 4.80469 3.23438 5.16406C3.39062 5.52344 3.60417 5.84115 3.875 6.11719C4.14583 6.39323 4.46354 6.60938 4.82812 6.76562C5.19271 6.92188 5.58333 7 6 7C6.41146 7 6.79948 6.92188 7.16406 6.76562C7.52865 6.60938 7.84635 6.39583 8.11719 6.125C8.38802 5.85417 8.60417 5.53646 8.76562 5.17188C8.92708 4.80729 9.00521 4.41667 9 4C9 3.58854 8.92188 3.20052 8.76562 2.83594C8.60938 2.47135 8.39583 2.15365 8.125 1.88281C7.85417 1.61198 7.53385 1.39583 7.16406 1.23438C6.79427 1.07292 6.40625 0.994792 6 1C5.58333 1 5.19531 1.07812 4.83594 1.23438C4.47656 1.39062 4.15885 1.60417 3.88281 1.875C3.60677 2.14583 3.39062 2.46615 3.23438 2.83594C3.07812 3.20573 3 3.59375 3 4ZM13 7C13.4115 7 13.7995 7.07812 14.1641 7.23438C14.5286 7.39062 14.8464 7.60417 15.1172 7.875C15.388 8.14583 15.6042 8.46615 15.7656 8.83594C15.9271 9.20573 16.0052 9.59375 16 10C16 10.4167 15.9219 10.8047 15.7656 11.1641C15.6094 11.5234 15.3958 11.8411 15.125 12.1172C14.8542 12.3932 14.5339 12.6094 14.1641 12.7656C13.7943 12.9219 13.4062 13 13 13C12.6615 13 12.3281 12.9401 12 12.8203V14H11V15H10V16H7V13.7969L10.0859 10.7031C10.0286 10.4635 10 10.2292 10 10C10 9.58854 10.0781 9.20052 10.2344 8.83594C10.3906 8.47135 10.6042 8.15365 10.875 7.88281C11.1458 7.61198 11.4635 7.39583 11.8281 7.23438C12.1927 7.07292 12.5833 6.99479 13 7ZM13 12C13.276 12 13.5339 11.9479 13.7734 11.8438C14.013 11.7396 14.2266 11.5964 14.4141 11.4141C14.6016 11.2318 14.7448 11.0208 14.8438 10.7812C14.9427 10.5417 14.9948 10.2812 15 10C15 9.72396 14.9479 9.46615 14.8438 9.22656C14.7396 8.98698 14.5964 8.77344 14.4141 8.58594C14.2318 8.39844 14.0208 8.25521 13.7812 8.15625C13.5417 8.05729 13.2812 8.00521 13 8C12.724 8 12.4661 8.05208 12.2266 8.15625C11.987 8.26042 11.7734 8.40365 11.5859 8.58594C11.3984 8.76823 11.2552 8.97917 11.1562 9.21875C11.0573 9.45833 11.0052 9.71875 11 10C11 10.1823 11.0234 10.349 11.0703 10.5C11.1172 10.651 11.1719 10.8099 11.2344 10.9766L8 14.2031V15H9V14H10V13H11V12.2891L11.7266 11.5703C11.9349 11.6901 12.1354 11.7917 12.3281 11.875C12.5208 11.9583 12.7448 12 13 12Z" fill="#CDB3B3" fill-opacity="0.35"/>
</svg>
