<svg width="16" height="22" viewBox="0 0 16 22" fill="none" xmlns="http://www.w3.org/2000/svg">
<path fill-rule="evenodd" clip-rule="evenodd" d="M8.594 21.258L8.582 21.26L8.511 21.295L8.491 21.299L8.477 21.295L8.406 21.259C8.39534 21.2563 8.38734 21.2583 8.382 21.265L8.378 21.275L8.361 21.703L8.366 21.723L8.376 21.736L8.48 21.81L8.495 21.814L8.507 21.81L8.611 21.736L8.623 21.72L8.627 21.703L8.61 21.276C8.60734 21.2653 8.602 21.2593 8.594 21.258ZM8.858 21.145L8.844 21.147L8.66 21.24L8.65 21.25L8.647 21.261L8.665 21.691L8.67 21.703L8.678 21.711L8.879 21.803C8.89167 21.8063 8.90134 21.8037 8.908 21.795L8.912 21.781L8.878 21.167C8.87467 21.1543 8.868 21.147 8.858 21.145ZM8.143 21.147C8.1386 21.1443 8.13333 21.1435 8.1283 21.1446C8.12327 21.1457 8.11886 21.1487 8.116 21.153L8.11 21.167L8.076 21.781C8.07667 21.793 8.08234 21.801 8.093 21.805L8.108 21.803L8.309 21.71L8.319 21.702L8.322 21.691L8.34 21.261L8.337 21.249L8.327 21.239L8.143 21.147Z" fill="#A978DD"/>
<path fill-rule="evenodd" clip-rule="evenodd" d="M8 2C7.46957 2 6.96086 2.21071 6.58579 2.58579C6.21071 2.96086 6 3.46957 6 4H10C10 3.46957 9.78929 2.96086 9.41421 2.58579C9.03914 2.21071 8.53043 2 8 2ZM5.354 1C6.059 0.378 6.986 0 8 0C9.014 0 9.94 0.378 10.646 1H14C14.5304 1 15.0391 1.21071 15.4142 1.58579C15.7893 1.96086 16 2.46957 16 3V18C16 18.5304 15.7893 19.0391 15.4142 19.4142C15.0391 19.7893 14.5304 20 14 20H2C1.46957 20 0.960859 19.7893 0.585786 19.4142C0.210714 19.0391 0 18.5304 0 18V3C0 2.46957 0.210714 1.96086 0.585786 1.58579C0.960859 1.21071 1.46957 1 2 1H5.354ZM4.126 3H2V18H14V3H11.874C11.9567 3.32067 11.9987 3.654 12 4V5C12 5.26522 11.8946 5.51957 11.7071 5.70711C11.5196 5.89464 11.2652 6 11 6H5C4.73478 6 4.48043 5.89464 4.29289 5.70711C4.10536 5.51957 4 5.26522 4 5V4C4.00133 3.654 4.04333 3.32067 4.126 3ZM4 9C4 8.73478 4.10536 8.48043 4.29289 8.29289C4.48043 8.10536 4.73478 8 5 8H11C11.2652 8 11.5196 8.10536 11.7071 8.29289C11.8946 8.48043 12 8.73478 12 9C12 9.26522 11.8946 9.51957 11.7071 9.70711C11.5196 9.89464 11.2652 10 11 10H5C4.73478 10 4.48043 9.89464 4.29289 9.70711C4.10536 9.51957 4 9.26522 4 9ZM4 13C4 12.7348 4.10536 12.4804 4.29289 12.2929C4.48043 12.1054 4.73478 12 5 12H8C8.26522 12 8.51957 12.1054 8.70711 12.2929C8.89464 12.4804 9 12.7348 9 13C9 13.2652 8.89464 13.5196 8.70711 13.7071C8.51957 13.8946 8.26522 14 8 14H5C4.73478 14 4.48043 13.8946 4.29289 13.7071C4.10536 13.5196 4 13.2652 4 13Z" fill="#A978DD"/>
</svg>
