<svg width="18" height="22" viewBox="0 0 18 22" fill="none" xmlns="http://www.w3.org/2000/svg">
<path d="M8.75012 8.75C10.9593 8.75 12.7501 6.95914 12.7501 4.75C12.7501 2.54086 10.9593 0.75 8.75012 0.75C6.54098 0.75 4.75012 2.54086 4.75012 4.75C4.75012 6.95914 6.54098 8.75 8.75012 8.75Z" stroke="#CDB3B3" stroke-opacity="0.35" stroke-width="1.5"/>
<path d="M16.7481 16.75C16.7495 16.586 16.7501 16.4193 16.7501 16.25C16.7501 13.765 13.1681 11.75 8.75012 11.75C4.33212 11.75 0.750122 13.765 0.750122 16.25C0.750122 18.735 0.750122 20.75 8.75012 20.75C10.9811 20.75 12.5901 20.593 13.7501 20.313" stroke="#CDB3B3" stroke-opacity="0.35" stroke-width="1.5" stroke-linecap="round"/>
</svg>
