<svg width="43" height="43" viewBox="0 0 43 43" fill="none" xmlns="http://www.w3.org/2000/svg">
<g filter="url(#filter1_d_4_9)">
<rect x="4" y="4" width="35" height="35" rx="6" fill="#611DE8" fill-opacity="0.3" shape-rendering="crispEdges"/>
</g>
<path d="M18 33V28V33ZM26 33V28V33ZM13 33V28C13 23.03 17.03 20 22 20C26.97 20 31 23.03 31 28V33M22 20C23.3261 20 24.5979 19.4732 25.5355 18.5355C26.4732 17.5979 27 16.3261 27 15C27 13.6739 26.4732 12.4021 25.5355 11.4645C24.5979 10.5268 23.3261 10 22 10C20.6739 10 19.4021 10.5268 18.4645 11.4645C17.5268 12.4021 17 13.6739 17 15C17 16.3261 17.5268 17.5979 18.4645 18.5355C19.4021 19.4732 20.6739 20 22 20Z" fill="#611DE8" fill-opacity="0.3"/>
<path d="M18 33V28M26 33V28M13 33V28C13 23.03 17.03 20 22 20M22 20C26.97 20 31 23.03 31 28V33M22 20C23.3261 20 24.5979 19.4732 25.5355 18.5355C26.4732 17.5979 27 16.3261 27 15C27 13.6739 26.4732 12.4021 25.5355 11.4645C24.5979 10.5268 23.3261 10 22 10C20.6739 10 19.4021 10.5268 18.4645 11.4645C17.5268 12.4021 17 13.6739 17 15C17 16.3261 17.5268 17.5979 18.4645 18.5355C19.4021 19.4732 20.6739 20 22 20Z" stroke="#D8AAFF" stroke-width="2"/>
<defs>
<filter id="filter1_d_4_9" x="0" y="0" width="43" height="43" filterUnits="userSpaceOnUse" color-interpolation-filters="sRGB">
<feFlood flood-opacity="0" result="BackgroundImageFix"/>
<feColorMatrix in="SourceAlpha" type="matrix" values="0 0 0 0 0 0 0 0 0 0 0 0 0 0 0 0 0 0 127 0" result="hardAlpha"/>
<feOffset/>
<feGaussianBlur stdDeviation="2"/>
<feComposite in2="hardAlpha" operator="out"/>
<feColorMatrix type="matrix" values="0 0 0 0 0 0 0 0 0 0 0 0 0 0 0 0 0 0 0.25 0"/>
<feBlend mode="normal" in2="BackgroundImageFix" result="effect1_dropShadow_4_9"/>
<feBlend mode="normal" in="SourceGraphic" in2="effect1_dropShadow_4_9" result="shape"/>
</filter>
</defs>
</svg>
